<svg version="1.1" viewBox="0.0 0.0 1111.5459317585303 697.7322834645669" fill="none" stroke="none" stroke-linecap="square" stroke-miterlimit="10" xmlns:xlink="http://www.w3.org/1999/xlink" xmlns="http://www.w3.org/2000/svg"><clipPath id="p.0"><path d="m0 0l1111.5459 0l0 697.7323l-1111.5459 0l0 -697.7323z" clip-rule="nonzero"/></clipPath><g clip-path="url(#p.0)"><path fill="#000000" fill-opacity="0.0" d="m0 0l1111.5459 0l0 697.7323l-1111.5459 0z" fill-rule="evenodd"/><path fill="#cfe2f3" d="m874.9198 95.28346l0 0c0 -50.853683 42.585876 -92.078735 95.118164 -92.078735l0 0c25.226868 0 49.420532 9.701125 67.25867 26.969238c17.838135 17.268114 27.859375 40.688698 27.859375 65.1095l0 0c0 50.853683 -42.585754 92.078735 -95.11804 92.078735l0 0c-52.532288 0 -95.118164 -41.22505 -95.118164 -92.078735z" fill-rule="evenodd"/><path stroke="#000000" stroke-width="1.0" stroke-linejoin="round" stroke-linecap="butt" d="m874.9198 95.28346l0 0c0 -50.853683 42.585876 -92.078735 95.118164 -92.078735l0 0c25.226868 0 49.420532 9.701125 67.25867 26.969238c17.838135 17.268114 27.859375 40.688698 27.859375 65.1095l0 0c0 50.853683 -42.585754 92.078735 -95.11804 92.078735l0 0c-52.532288 0 -95.118164 -41.22505 -95.118164 -92.078735z" fill-rule="evenodd"/><path fill="#000000" d="m954.0524 97.574715l0 -2.71875l7.0625 0l0 6.453125q-1.03125 1.0 -2.984375 1.765625q-1.953125 0.75 -3.953125 0.75q-2.546875 0 -4.4375 -1.0625q-1.890625 -1.078125 -2.84375 -3.0625q-0.953125 -1.984375 -0.953125 -4.328125q0 -2.53125 1.0625 -4.5q1.0625 -1.96875 3.109375 -3.015625q1.5625 -0.8125 3.890625 -0.8125q3.015625 0 4.703125 1.265625q1.703125 1.265625 2.203125 3.515625l-3.265625 0.59375q-0.328125 -1.1875 -1.28125 -1.875q-0.953125 -0.703125 -2.359375 -0.703125q-2.15625 0 -3.421875 1.375q-1.265625 1.359375 -1.265625 4.03125q0 2.890625 1.28125 4.34375q1.296875 1.4375 3.375 1.4375q1.03125 0 2.0625 -0.40625q1.03125 -0.40625 1.765625 -0.984375l0 -2.0625l-3.75 0zm20.466492 0l3.171875 1.015625q-0.734375 2.65625 -2.4375 3.953125q-1.6875 1.28125 -4.296875 1.28125q-3.234375 0 -5.3125 -2.203125q-2.078125 -2.21875 -2.078125 -6.046875q0 -4.046875 2.078125 -6.28125q2.09375 -2.25 5.5 -2.25q2.984375 0 4.84375 1.765625q1.109375 1.03125 1.65625 2.984375l-3.234375 0.78125q-0.296875 -1.265625 -1.21875 -2.0q-0.90625 -0.734375 -2.203125 -0.734375q-1.8125 0 -2.9375 1.296875q-1.109375 1.296875 -1.109375 4.203125q0 3.0625 1.09375 4.375q1.109375 1.3125 2.890625 1.3125q1.296875 0 2.234375 -0.828125q0.9375 -0.84375 1.359375 -2.625zm6.0178833 5.96875l0 -16.21875l3.1875 0l6.625 10.828125l0 -10.828125l3.046875 0l0 16.21875l-3.28125 0l-6.546875 -10.578125l0 10.578125l-3.03125 0z" fill-rule="nonzero"/><path fill="#cfe2f3" d="m874.9198 504.272l0 0c0 -50.85367 42.585876 -92.078735 95.118164 -92.078735l0 0c25.226868 0 49.420532 9.701141 67.25867 26.969238c17.838135 17.268127 27.859375 40.68872 27.859375 65.1095l0 0c0 50.85367 -42.585754 92.078766 -95.11804 92.078766l0 0c-52.532288 0 -95.118164 -41.225098 -95.118164 -92.078766z" fill-rule="evenodd"/><path stroke="#000000" stroke-width="1.0" stroke-linejoin="round" stroke-linecap="butt" d="m874.9198 504.272l0 0c0 -50.85367 42.585876 -92.078735 95.118164 -92.078735l0 0c25.226868 0 49.420532 9.701141 67.25867 26.969238c17.838135 17.268127 27.859375 40.68872 27.859375 65.1095l0 0c0 50.85367 -42.585754 92.078766 -95.11804 92.078766l0 0c-52.532288 0 -95.118164 -41.225098 -95.118164 -92.078766z" fill-rule="evenodd"/><path fill="#000000" d="m956.1547 506.56326l0 -2.71875l7.0625 0l0 6.453125q-1.03125 1.0 -2.984375 1.7656555q-1.953125 0.75 -3.953125 0.75q-2.546875 0 -4.4375 -1.0625305q-1.890625 -1.078125 -2.84375 -3.0625q-0.953125 -1.984375 -0.953125 -4.328125q0 -2.53125 1.0625 -4.5q1.0625 -1.96875 3.109375 -3.015625q1.5625 -0.8125 3.890625 -0.8125q3.015625 0 4.703125 1.265625q1.703125 1.265625 2.203125 3.515625l-3.265625 0.59375q-0.328125 -1.1875 -1.28125 -1.875q-0.953125 -0.703125 -2.359375 -0.703125q-2.15625 0 -3.421875 1.375q-1.265625 1.359375 -1.265625 4.03125q0 2.890625 1.28125 4.34375q1.296875 1.4375 3.375 1.4375q1.03125 0 2.0625 -0.40625q1.03125 -0.40625 1.765625 -0.984375l0 -2.0625l-3.75 0zm24.700867 5.9687805l-3.546875 0l-1.421875 -3.6875305l-6.484375 0l-1.34375 3.6875305l-3.46875 0l6.3125 -16.21878l3.46875 0l6.484375 16.21878zm-6.015625 -6.4219055l-2.234375 -6.015625l-2.203125 6.015625l4.4375 0zm9.726196 6.4219055l0 -13.4687805l-4.8125 0l0 -2.75l12.890625 0l0 2.75l-4.796875 0l0 13.4687805l-3.28125 0z" fill-rule="nonzero"/><path fill="#cfe2f3" d="m468.49112 299.87006l0 0c0 -50.8537 42.585846 -92.07875 95.11813 -92.07875l0 0c25.226868 0 49.420532 9.701126 67.25867 26.969238c17.838074 17.268112 27.859436 40.688705 27.859436 65.10951l0 0c0 50.85367 -42.585815 92.078735 -95.1181 92.078735l0 0c-52.532288 0 -95.11813 -41.225067 -95.11813 -92.078735z" fill-rule="evenodd"/><path stroke="#000000" stroke-width="1.0" stroke-linejoin="round" stroke-linecap="butt" d="m468.49112 299.87006l0 0c0 -50.8537 42.585846 -92.07875 95.11813 -92.07875l0 0c25.226868 0 49.420532 9.701126 67.25867 26.969238c17.838074 17.268112 27.859436 40.688705 27.859436 65.10951l0 0c0 50.85367 -42.585815 92.078735 -95.1181 92.078735l0 0c-52.532288 0 -95.11813 -41.225067 -95.11813 -92.078735z" fill-rule="evenodd"/><path fill="#000000" d="m504.59506 289.3488l3.1875 -0.3125q0.296875 1.609375 1.171875 2.359375q0.875 0.75 2.375 0.75q1.5781555 0 2.3750305 -0.65625q0.8125 -0.671875 0.8125 -1.578125q0 -0.5625 -0.34375 -0.96875q-0.328125 -0.40625 -1.171875 -0.703125q-0.578125 -0.203125 -2.6250305 -0.71875q-2.640625 -0.640625 -3.703125 -1.59375q-1.484375 -1.34375 -1.484375 -3.265625q0 -1.234375 0.703125 -2.3125q0.703125 -1.078125 2.015625 -1.640625q1.328125 -0.578125 3.203125 -0.578125q3.0469055 0 4.5937805 1.34375q1.546875 1.34375 1.625 3.578125l-3.28125 0.140625q-0.203125 -1.25 -0.90625 -1.796875q-0.6875 -0.546875 -2.0625305 -0.546875q-1.4375 0 -2.234375 0.578125q-0.53125 0.375 -0.53125 1.015625q0 0.578125 0.484375 0.984375q0.625 0.515625 3.015625 1.078125q2.3906555 0.5625 3.5312805 1.171875q1.15625 0.59375 1.796875 1.640625q0.640625 1.046875 0.640625 2.59375q0 1.390625 -0.78125 2.609375q-0.765625 1.21875 -2.1875 1.8125q-1.40625 0.578125 -3.5156555 0.578125q-3.078125 0 -4.734375 -1.421875q-1.640625 -1.421875 -1.96875 -4.140625zm26.174042 -3.0l-3.0625 0.5625q-0.15625 -0.921875 -0.703125 -1.375q-0.546875 -0.46875 -1.421875 -0.46875q-1.171875 0 -1.859375 0.796875q-0.6875 0.796875 -0.6875 2.6875q0 2.078125 0.703125 2.953125q0.703125 0.859375 1.875 0.859375q0.890625 0 1.453125 -0.5q0.5625 -0.515625 0.796875 -1.734375l3.0625 0.515625q-0.484375 2.109375 -1.84375 3.1875q-1.34375 1.0625 -3.609375 1.0625q-2.578125 0 -4.109375 -1.625q-1.53125 -1.625 -1.53125 -4.5q0 -2.90625 1.53125 -4.53125q1.546875 -1.625 4.171875 -1.625q2.140625 0 3.40625 0.921875q1.265625 0.921875 1.828125 2.8125zm4.678467 0.109375l-2.828125 -0.5q0.484375 -1.703125 1.640625 -2.515625q1.15625 -0.828125 3.453125 -0.828125q2.078125 0 3.09375 0.5q1.015625 0.484375 1.421875 1.25q0.421875 0.75 0.421875 2.78125l-0.03125 3.625q0 1.546875 0.140625 2.28125q0.15625 0.734375 0.578125 1.578125l-3.078125 0q-0.125 -0.3125 -0.296875 -0.921875q-0.078125 -0.265625 -0.109375 -0.359375q-0.796875 0.765625 -1.71875 1.15625q-0.90625 0.390625 -1.921875 0.390625q-1.828125 0 -2.875 -0.984375q-1.03125 -0.984375 -1.03125 -2.484375q0 -1.0 0.46875 -1.78125q0.484375 -0.78125 1.328125 -1.1875q0.859375 -0.421875 2.484375 -0.734375q2.171875 -0.40625 3.015625 -0.765625l0 -0.296875q0 -0.90625 -0.453125 -1.28125q-0.4375 -0.390625 -1.65625 -0.390625q-0.828125 0 -1.296875 0.328125q-0.46875 0.328125 -0.75 1.140625zm4.15625 2.53125q-0.59375 0.203125 -1.890625 0.484375q-1.296875 0.265625 -1.6875 0.53125q-0.609375 0.4375 -0.609375 1.09375q0 0.65625 0.484375 1.140625q0.484375 0.46875 1.234375 0.46875q0.84375 0 1.609375 -0.5625q0.5625 -0.40625 0.734375 -1.015625q0.125 -0.40625 0.125 -1.515625l0 -0.625zm9.100342 5.640625l-3.109375 0l0 -11.75l2.875 0l0 1.671875q0.75 -1.1875 1.34375 -1.5625q0.59375 -0.375 1.34375 -0.375q1.0625 0 2.046875 0.59375l-0.96875 2.703125q-0.78125 -0.5 -1.453125 -0.5q-0.65625 0 -1.109375 0.359375q-0.453125 0.359375 -0.71875 1.296875q-0.25 0.9375 -0.25 3.9375l0 3.625zm4.7387695 -3.359375l3.125 -0.46875q0.1875 0.90625 0.796875 1.375q0.609375 0.46875 1.703125 0.46875q1.21875 0 1.8125 -0.4375q0.421875 -0.3125 0.421875 -0.828125q0 -0.359375 -0.21875 -0.59375q-0.234375 -0.21875 -1.046875 -0.40625q-3.765625 -0.828125 -4.765625 -1.515625q-1.390625 -0.953125 -1.390625 -2.640625q0 -1.53125 1.203125 -2.5625q1.203125 -1.046875 3.734375 -1.046875q2.40625 0 3.578125 0.796875q1.1875 0.78125 1.625 2.3125l-2.9375 0.546875q-0.1875 -0.6875 -0.71875 -1.046875q-0.515625 -0.375 -1.484375 -0.375q-1.234375 0 -1.765625 0.34375q-0.359375 0.25 -0.359375 0.625q0 0.34375 0.3125 0.578125q0.421875 0.296875 2.90625 0.875q2.484375 0.5625 3.46875 1.375q0.96875 0.828125 0.96875 2.3125q0 1.609375 -1.34375 2.78125q-1.34375 1.15625 -4.0 1.15625q-2.390625 0 -3.796875 -0.96875q-1.390625 -0.984375 -1.828125 -2.65625zm20.506592 -0.375l3.09375 0.515625q-0.59375 1.703125 -1.890625 2.59375q-1.28125 0.890625 -3.21875 0.890625q-3.0625 0 -4.546875 -2.0q-1.15625 -1.609375 -1.15625 -4.046875q0 -2.921875 1.515625 -4.578125q1.53125 -1.65625 3.875 -1.65625q2.625 0 4.140625 1.734375q1.515625 1.734375 1.4375 5.296875l-7.78125 0q0.03125 1.390625 0.75 2.15625q0.71875 0.765625 1.796875 0.765625q0.71875 0 1.21875 -0.390625q0.5 -0.40625 0.765625 -1.28125zm0.171875 -3.140625q-0.03125 -1.359375 -0.703125 -2.0625q-0.65625 -0.703125 -1.609375 -0.703125q-1.015625 0 -1.6875 0.75q-0.65625 0.734375 -0.65625 2.015625l4.65625 0zm5.615906 6.875l0 -16.21875l3.109375 0l0 16.21875l-3.109375 0zm6.2946777 0l0 -16.21875l3.109375 0l0 16.21875l-3.109375 0zm6.2946167 -13.34375l0 -2.875l3.109375 0l0 2.875l-3.109375 0zm0 13.34375l0 -11.75l3.109375 0l0 11.75l-3.109375 0zm19.401733 -3.734375l3.09375 0.515625q-0.59375 1.703125 -1.890625 2.59375q-1.28125 0.890625 -3.21875 0.890625q-3.0625 0 -4.546875 -2.0q-1.15625 -1.609375 -1.15625 -4.046875q0 -2.921875 1.515625 -4.578125q1.53125 -1.65625 3.875 -1.65625q2.625 0 4.140625 1.734375q1.515625 1.734375 1.4375 5.296875l-7.78125 0q0.03125 1.390625 0.75 2.15625q0.71875 0.765625 1.796875 0.765625q0.71875 0 1.21875 -0.390625q0.5 -0.40625 0.765625 -1.28125zm0.171875 -3.140625q-0.03125 -1.359375 -0.703125 -2.0625q-0.65625 -0.703125 -1.609375 -0.703125q-1.015625 0 -1.6875 0.75q-0.65625 0.734375 -0.65625 2.015625l4.65625 0zm11.006592 -4.875l0 2.484375l-2.125 0l0 4.734375q0 1.4375 0.0625 1.671875q0.0625 0.234375 0.265625 0.390625q0.21875 0.15625 0.53125 0.15625q0.4375 0 1.25 -0.296875l0.265625 2.40625q-1.078125 0.46875 -2.453125 0.46875q-0.84375 0 -1.515625 -0.28125q-0.671875 -0.28125 -1.0 -0.71875q-0.3125 -0.453125 -0.421875 -1.21875q-0.109375 -0.546875 -0.109375 -2.203125l0 -5.109375l-1.421875 0l0 -2.484375l1.421875 0l0 -2.328125l3.125 -1.8125l0 4.140625l2.125 0z" fill-rule="nonzero"/><path fill="#000000" d="m554.9676 313.45816l-2.828125 -0.5q0.484375 -1.703125 1.640625 -2.515625q1.15625 -0.828125 3.453125 -0.828125q2.078125 0 3.09375 0.5q1.015625 0.484375 1.421875 1.25q0.421875 0.75 0.421875 2.78125l-0.03125 3.625q0 1.546875 0.140625 2.28125q0.15625 0.734375 0.578125 1.578125l-3.078125 0q-0.125 -0.3125 -0.296875 -0.921875q-0.078125 -0.265625 -0.109375 -0.359375q-0.796875 0.765625 -1.71875 1.15625q-0.90625 0.390625 -1.921875 0.390625q-1.828125 0 -2.875 -0.984375q-1.03125 -0.984375 -1.03125 -2.484375q0 -1.0 0.46875 -1.78125q0.484375 -0.78125 1.328125 -1.1875q0.859375 -0.421875 2.484375 -0.734375q2.171875 -0.40625 3.015625 -0.765625l0 -0.296875q0 -0.90625 -0.453125 -1.28125q-0.4375 -0.390625 -1.65625 -0.390625q-0.828125 0 -1.296875 0.328125q-0.46875 0.328125 -0.75 1.140625zm4.15625 2.53125q-0.59375 0.203125 -1.890625 0.484375q-1.296875 0.265625 -1.6875 0.53125q-0.609375 0.4375 -0.609375 1.09375q0 0.65625 0.484375 1.140625q0.484375 0.46875 1.234375 0.46875q0.84375 0 1.609375 -0.5625q0.5625 -0.40625 0.734375 -1.015625q0.125 -0.40625 0.125 -1.515625l0 -0.625zm6.115906 5.640625l0 -16.21875l3.109375 0l0 16.21875l-3.109375 0zm6.2946777 0l0 -3.109375l3.109375 0l0 3.109375l-3.109375 0z" fill-rule="nonzero"/><path fill="#cfe2f3" d="m17.0 299.87006l0 0c0 -50.8537 42.585827 -92.07875 95.11811 -92.07875l0 0c25.22689 0 49.420555 9.701126 67.25866 26.969238c17.838104 17.268112 27.859451 40.688705 27.859451 65.10951l0 0c0 50.85367 -42.58583 92.078735 -95.11811 92.078735l0 0c-52.532284 0 -95.11811 -41.225067 -95.11811 -92.078735z" fill-rule="evenodd"/><path stroke="#000000" stroke-width="1.0" stroke-linejoin="round" stroke-linecap="butt" d="m17.0 299.87006l0 0c0 -50.8537 42.585827 -92.07875 95.11811 -92.07875l0 0c25.22689 0 49.420555 9.701126 67.25866 26.969238c17.838104 17.268112 27.859451 40.688705 27.859451 65.10951l0 0c0 50.85367 -42.58583 92.078735 -95.11811 92.078735l0 0c-52.532284 0 -95.11811 -41.225067 -95.11811 -92.078735z" fill-rule="evenodd"/><path fill="#000000" d="m53.35488 294.63004l0 -16.21875l11.109375 0l0 2.75l-7.84375 0l0 3.828125l6.78125 0l0 2.75l-6.78125 0l0 6.890625l-3.265625 0zm16.77684 0l-3.109375 0l0 -11.75l2.875 0l0 1.671875q0.75 -1.1875 1.34375 -1.5625q0.59375 -0.375 1.34375 -0.375q1.0625 0 2.046875 0.59375l-0.96875 2.703125q-0.78125 -0.5 -1.453125 -0.5q-0.65625 0 -1.109375 0.359375q-0.453125 0.359375 -0.71875 1.296875q-0.25 0.9375 -0.25 3.9375l0 3.625zm8.16066 -8.171875l-2.828125 -0.5q0.484375 -1.703125 1.640625 -2.515625q1.15625 -0.828125 3.453125 -0.828125q2.078125 0 3.09375 0.5q1.015625 0.484375 1.421875 1.25q0.421875 0.75 0.421875 2.78125l-0.03125 3.625q0 1.546875 0.140625 2.28125q0.15625 0.734375 0.578125 1.578125l-3.078125 0q-0.125 -0.3125 -0.296875 -0.921875q-0.078125 -0.265625 -0.109375 -0.359375q-0.796875 0.765625 -1.71875 1.15625q-0.90625 0.390625 -1.921875 0.390625q-1.828125 0 -2.875 -0.984375q-1.03125 -0.984375 -1.03125 -2.484375q0 -1.0 0.46875 -1.78125q0.484375 -0.78125 1.328125 -1.1875q0.859375 -0.421875 2.484375 -0.734375q2.171875 -0.40625 3.015625 -0.765625l0 -0.296875q0 -0.90625 -0.453125 -1.28125q-0.4375 -0.390625 -1.65625 -0.390625q-0.828125 0 -1.296875 0.328125q-0.46875 0.328125 -0.75 1.140625zm4.15625 2.53125q-0.59375 0.203125 -1.890625 0.484375q-1.296875 0.265625 -1.6875 0.53125q-0.609375 0.4375 -0.609375 1.09375q0 0.65625 0.484375 1.140625q0.484375 0.46875 1.234375 0.46875q0.84375 0 1.609375 -0.5625q0.5625 -0.40625 0.734375 -1.015625q0.125 -0.40625 0.125 -1.515625l0 -0.625zm5.0222015 2.28125l3.125 -0.46875q0.1875 0.90625 0.796875 1.375q0.609375 0.46875 1.703125 0.46875q1.21875 0 1.8125 -0.4375q0.421875 -0.3125 0.421875 -0.828125q0 -0.359375 -0.21875 -0.59375q-0.234375 -0.21875 -1.046875 -0.40625q-3.765625 -0.828125 -4.765625 -1.515625q-1.390625 -0.953125 -1.390625 -2.640625q0 -1.53125 1.203125 -2.5625q1.203125 -1.046875 3.734375 -1.046875q2.40625 0 3.578125 0.796875q1.1875 0.78125 1.625 2.3125l-2.9375 0.546875q-0.1875 -0.6875 -0.71875 -1.046875q-0.515625 -0.375 -1.484375 -0.375q-1.234375 0 -1.765625 0.34375q-0.359375 0.25 -0.359375 0.625q0 0.34375 0.3125 0.578125q0.421875 0.296875 2.90625 0.875q2.484375 0.5625 3.46875 1.375q0.96875 0.828125 0.96875 2.3125q0 1.609375 -1.34375 2.78125q-1.34375 1.15625 -4.0 1.15625q-2.390625 0 -3.796875 -0.96875q-1.390625 -0.984375 -1.828125 -2.65625zm23.944077 -4.921875l-3.0625 0.5625q-0.15625 -0.921875 -0.703125 -1.375q-0.546875 -0.46875 -1.421875 -0.46875q-1.171875 0 -1.859375 0.796875q-0.6875 0.796875 -0.6875 2.6875q0 2.078125 0.703125 2.953125q0.703125 0.859375 1.875 0.859375q0.890625 0 1.453125 -0.5q0.5625 -0.515625 0.796875 -1.734375l3.0625 0.515625q-0.484375 2.109375 -1.84375 3.1875q-1.34375 1.0625 -3.609375 1.0625q-2.578125 0 -4.109375 -1.625q-1.53125 -1.625 -1.53125 -4.5q0 -2.90625 1.53125 -4.53125q1.546875 -1.625 4.171875 -1.625q2.140625 0 3.40625 0.921875q1.265625 0.921875 1.828125 2.8125zm1.6315765 2.234375q0 -1.546875 0.765625 -2.984375q0.765625 -1.453125 2.15625 -2.21875q1.40625 -0.765625 3.125 -0.765625q2.671875 0 4.375 1.734375q1.703125 1.734375 1.703125 4.375q0 2.671875 -1.71875 4.421875q-1.71875 1.75 -4.328125 1.75q-1.625 0 -3.09375 -0.71875q-1.453125 -0.734375 -2.21875 -2.140625q-0.765625 -1.421875 -0.765625 -3.453125zm3.1875 0.171875q0 1.75 0.828125 2.6875q0.828125 0.921875 2.046875 0.921875q1.21875 0 2.03125 -0.921875q0.828125 -0.9375 0.828125 -2.703125q0 -1.734375 -0.828125 -2.65625q-0.8125 -0.9375 -2.03125 -0.9375q-1.21875 0 -2.046875 0.9375q-0.828125 0.921875 -0.828125 2.671875zm22.058083 5.875l-3.109375 0l0 -6.0q0 -1.90625 -0.203125 -2.453125q-0.1875 -0.5625 -0.640625 -0.875q-0.453125 -0.3125 -1.078125 -0.3125q-0.8125 0 -1.453125 0.453125q-0.640625 0.4375 -0.875 1.171875q-0.234375 0.71875 -0.234375 2.6875l0 5.328125l-3.1093674 0l0 -11.75l2.8749924 0l0 1.734375q1.546875 -2.0 3.875 -2.0q1.03125 0 1.875 0.375q0.859375 0.375 1.296875 0.953125q0.4375 0.5625 0.609375 1.296875q0.171875 0.734375 0.171875 2.09375l0 7.296875zm3.1518402 -13.34375l0 -2.875l3.109375 0l0 2.875l-3.109375 0zm0 13.34375l0 -11.75l3.109375 0l0 11.75l-3.109375 0zm19.401764 -3.734375l3.09375 0.515625q-0.59375 1.703125 -1.890625 2.59375q-1.28125 0.890625 -3.21875 0.890625q-3.0625 0 -4.546875 -2.0q-1.15625 -1.609375 -1.15625 -4.046875q0 -2.921875 1.515625 -4.578125q1.53125 -1.65625 3.875 -1.65625q2.625 0 4.140625 1.734375q1.515625 1.734375 1.4375 5.296875l-7.78125 0q0.03125 1.390625 0.75 2.15625q0.71875 0.765625 1.796875 0.765625q0.71875 0 1.21875 -0.390625q0.5 -0.40625 0.765625 -1.28125zm0.171875 -3.140625q-0.03125 -1.359375 -0.703125 -2.0625q-0.65625 -0.703125 -1.609375 -0.703125q-1.015625 0 -1.6875 0.75q-0.65625 0.734375 -0.65625 2.015625l4.65625 0zm11.006577 -4.875l0 2.484375l-2.125 0l0 4.734375q0 1.4375 0.0625 1.671875q0.0625 0.234375 0.265625 0.390625q0.21875 0.15625 0.53125 0.15625q0.4375 0 1.25 -0.296875l0.265625 2.40625q-1.078125 0.46875 -2.453125 0.46875q-0.84375 0 -1.515625 -0.28125q-0.671875 -0.28125 -1.0 -0.71875q-0.3125 -0.453125 -0.421875 -1.21875q-0.109375 -0.546875 -0.109375 -2.203125l0 -5.109375l-1.421875 0l0 -2.484375l1.421875 0l0 -2.328125l3.125 -1.8125l0 4.140625l2.125 0z" fill-rule="nonzero"/><path fill="#000000" d="m103.47644 313.45816l-2.828125 -0.5q0.484375 -1.703125 1.640625 -2.515625q1.15625 -0.828125 3.453125 -0.828125q2.078125 0 3.09375 0.5q1.015625 0.484375 1.421875 1.25q0.421875 0.75 0.421875 2.78125l-0.03125 3.625q0 1.546875 0.140625 2.28125q0.15625 0.734375 0.578125 1.578125l-3.078125 0q-0.125 -0.3125 -0.296875 -0.921875q-0.078125 -0.265625 -0.109375 -0.359375q-0.796875 0.765625 -1.71875 1.15625q-0.90625 0.390625 -1.921875 0.390625q-1.828125 0 -2.875 -0.984375q-1.03125 -0.984375 -1.03125 -2.484375q0 -1.0 0.46875 -1.78125q0.484375 -0.78125 1.328125 -1.1875q0.859375 -0.421875 2.484375 -0.734375q2.171875 -0.40625 3.015625 -0.765625l0 -0.296875q0 -0.90625 -0.453125 -1.28125q-0.4375 -0.390625 -1.65625 -0.390625q-0.828125 0 -1.296875 0.328125q-0.46875 0.328125 -0.75 1.140625zm4.15625 2.53125q-0.59375 0.203125 -1.890625 0.484375q-1.296875 0.265625 -1.6875 0.53125q-0.609375 0.4375 -0.609375 1.09375q0 0.65625 0.484375 1.140625q0.484375 0.46875 1.234375 0.46875q0.84375 0 1.609375 -0.5625q0.5625 -0.40625 0.734375 -1.015625q0.125 -0.40625 0.125 -1.515625l0 -0.625zm6.1159515 5.640625l0 -16.21875l3.109375 0l0 16.21875l-3.109375 0zm6.294632 0l0 -3.109375l3.109375 0l0 3.109375l-3.109375 0z" fill-rule="nonzero"/><path fill="#000000" fill-opacity="0.0" d="m65.567505 393.5798l93.10237 0l0 45.259857l-93.10237 0z" fill-rule="evenodd"/><path fill="#000000" d="m93.53593 423.0598l2.40625 -11.53125q-1.5625 1.234375 -4.390625 1.96875l0.359375 -1.703125q1.40625 -0.5625 2.765625 -1.46875q1.375 -0.90625 2.0625 -1.578125q0.421875 -0.421875 0.796875 -1.015625l1.09375 0l-3.203125 15.328125l-1.890625 0zm8.158569 -3.5l1.765625 -0.171875q0.1875 1.28125 0.734375 1.828125q0.546875 0.53125 1.3125 0.53125q1.078125 0 2.015625 -0.9375q1.359375 -1.375 2.0 -3.953125q-0.9375 0.71875 -1.671875 1.015625q-0.734375 0.296875 -1.515625 0.296875q-1.390625 0 -2.5 -0.9375q-1.453125 -1.21875 -1.453125 -3.5q0 -2.578125 1.6875 -4.421875q1.453125 -1.578125 3.546875 -1.578125q1.90625 0 3.140625 1.40625q1.25 1.390625 1.25 3.953125q0 2.484375 -0.828125 4.921875q-0.984375 2.84375 -2.671875 4.203125q-1.375 1.109375 -3.09375 1.109375q-1.578125 0 -2.59375 -0.984375q-1.0 -0.984375 -1.125 -2.78125zm2.515625 -6.046875q0 1.4375 0.765625 2.296875q0.765625 0.859375 1.8125 0.859375q0.78125 0 1.546875 -0.53125q0.78125 -0.53125 1.328125 -1.59375q0.546875 -1.0625 0.546875 -2.171875q0 -0.875 -0.359375 -1.625q-0.359375 -0.75 -1.0 -1.125q-0.625 -0.375 -1.265625 -0.375q-0.625 0 -1.234375 0.328125q-0.609375 0.328125 -1.125 0.984375q-0.515625 0.640625 -0.765625 1.484375q-0.25 0.828125 -0.25 1.46875zm9.346069 6.046875l1.765625 -0.171875q0.1875 1.28125 0.734375 1.828125q0.546875 0.53125 1.3125 0.53125q1.078125 0 2.015625 -0.9375q1.359375 -1.375 2.0 -3.953125q-0.9375 0.71875 -1.671875 1.015625q-0.734375 0.296875 -1.515625 0.296875q-1.390625 0 -2.5 -0.9375q-1.453125 -1.21875 -1.453125 -3.5q0 -2.578125 1.6875 -4.421875q1.453125 -1.578125 3.546875 -1.578125q1.90625 0 3.140625 1.40625q1.25 1.390625 1.25 3.953125q0 2.484375 -0.828125 4.921875q-0.984375 2.84375 -2.671875 4.203125q-1.375 1.109375 -3.09375 1.109375q-1.578125 0 -2.59375 -0.984375q-1.0 -0.984375 -1.125 -2.78125zm2.515625 -6.046875q0 1.4375 0.765625 2.296875q0.765625 0.859375 1.8125 0.859375q0.78125 0 1.546875 -0.53125q0.78125 -0.53125 1.328125 -1.59375q0.546875 -1.0625 0.546875 -2.171875q0 -0.875 -0.359375 -1.625q-0.359375 -0.75 -1.0 -1.125q-0.625 -0.375 -1.265625 -0.375q-0.625 0 -1.234375 0.328125q-0.609375 0.328125 -1.125 0.984375q-0.515625 0.640625 -0.765625 1.484375q-0.25 0.828125 -0.25 1.46875zm12.721062 1.15625q-0.8593674 -0.46875 -1.2812424 -1.203125q-0.421875 -0.734375 -0.421875 -1.578125q0 -1.390625 0.9999924 -2.5625q1.328125 -1.59375 3.609375 -1.59375q2.015625 0 3.15625 1.078125q1.15625 1.078125 1.15625 2.640625q0 1.109375 -0.625 2.015625q-0.625 0.890625 -1.953125 1.421875q0.921875 0.5625 1.3125 1.21875q0.515625 0.84375 0.515625 1.96875q0 2.046875 -1.453125 3.65625q-1.453125 1.59375 -3.875 1.59375q-1.921875 0 -3.1406174 -1.1875q-1.21875 -1.1875 -1.21875 -2.96875q0 -1.671875 0.859375 -2.875q0.875 -1.203125 2.3593674 -1.625zm0.140625 -2.703125q0 0.984375 0.625 1.578125q0.640625 0.59375 1.75 0.59375q1.28125 0 2.09375 -0.78125q0.8125 -0.78125 0.8125 -1.921875q0 -0.96875 -0.640625 -1.578125q-0.625 -0.609375 -1.734375 -0.609375q-0.828125 0 -1.53125 0.390625q-0.6875 0.375 -1.03125 1.046875q-0.34375 0.65625 -0.34375 1.28125zm-1.4687424 7.359375q0 0.640625 0.3125 1.234375q0.31249237 0.578125 0.9374924 0.921875q0.625 0.34375 1.421875 0.34375q1.53125 0 2.484375 -1.4375q0.75 -1.125 0.75 -2.4375q0 -1.0625 -0.703125 -1.734375q-0.6875 -0.671875 -1.8125 -0.671875q-1.421875 0 -2.40625 1.046875q-0.9843674 1.046875 -0.9843674 2.734375z" fill-rule="nonzero"/><path fill="#000000" fill-opacity="0.0" d="m517.059 391.95776l93.102356 0l0 45.259857l-93.102356 0z" fill-rule="evenodd"/><path fill="#000000" d="m541.13684 421.43777q0.296875 -1.359375 0.8125 -2.28125q0.515625 -0.921875 1.359375 -1.75q0.859375 -0.828125 3.296875 -2.78125q1.484375 -1.171875 2.015625 -1.734375q0.78125 -0.8125 1.140625 -1.59375q0.234375 -0.53125 0.234375 -1.15625q0 -1.046875 -0.75 -1.78125q-0.734375 -0.734375 -1.8125 -0.734375q-1.078125 0 -1.890625 0.75q-0.796875 0.734375 -1.140625 2.375l-1.84375 -0.265625q0.28125 -2.03125 1.578125 -3.203125q1.3125 -1.171875 3.265625 -1.171875q1.296875 0 2.34375 0.546875q1.0625 0.53125 1.59375 1.515625q0.53125 0.984375 0.53125 2.015625q0 1.515625 -1.078125 2.921875q-0.671875 0.875 -3.921875 3.453125q-1.390625 1.109375 -2.078125 1.8125q-0.671875 0.703125 -1.015625 1.328125l6.828125 0l-0.359375 1.734375l-9.109375 0zm12.127319 -5.015625q0 -1.9375 0.578125 -3.921875q0.578125 -2.0 1.28125 -3.203125q0.703125 -1.203125 1.46875 -1.875q0.765625 -0.671875 1.5 -0.984375q0.734375 -0.328125 1.625 -0.328125q1.75 0 2.921875 1.3125q1.171875 1.296875 1.171875 3.75q0 2.53125 -0.8125 5.0q-0.953125 2.9375 -2.671875 4.40625q-1.3125 1.125 -2.984375 1.125q-1.71875 0 -2.90625 -1.34375q-1.171875 -1.359375 -1.171875 -3.9375zm1.8125 0.484375q0 1.40625 0.46875 2.203125q0.640625 1.09375 1.890625 1.09375q1.09375 0 1.984375 -1.0q1.296875 -1.390625 1.9375 -4.078125q0.65625 -2.703125 0.65625 -4.40625q0 -1.640625 -0.625 -2.359375q-0.625 -0.734375 -1.65625 -0.734375q-0.75 0 -1.40625 0.390625q-0.65625 0.375 -1.25 1.3125q-0.84375 1.328125 -1.46875 3.953125q-0.53125 2.25 -0.53125 3.625zm10.049194 -0.484375q0 -1.9375 0.578125 -3.921875q0.578125 -2.0 1.28125 -3.203125q0.703125 -1.203125 1.46875 -1.875q0.765625 -0.671875 1.5 -0.984375q0.734375 -0.328125 1.625 -0.328125q1.75 0 2.921875 1.3125q1.171875 1.296875 1.171875 3.75q0 2.53125 -0.8125 5.0q-0.953125 2.9375 -2.671875 4.40625q-1.3125 1.125 -2.984375 1.125q-1.71875 0 -2.90625 -1.34375q-1.171875 -1.359375 -1.171875 -3.9375zm1.8125 0.484375q0 1.40625 0.46875 2.203125q0.640625 1.09375 1.890625 1.09375q1.09375 0 1.984375 -1.0q1.296875 -1.390625 1.9375 -4.078125q0.65625 -2.703125 0.65625 -4.40625q0 -1.640625 -0.625 -2.359375q-0.625 -0.734375 -1.65625 -0.734375q-0.75 0 -1.40625 0.390625q-0.65625 0.375 -1.25 1.3125q-0.84375 1.328125 -1.46875 3.953125q-0.53125 2.25 -0.53125 3.625zm9.971069 1.03125l1.765625 -0.171875q0.1875 1.28125 0.734375 1.828125q0.546875 0.53125 1.3125 0.53125q1.078125 0 2.015625 -0.9375q1.359375 -1.375 2.0 -3.953125q-0.9375 0.71875 -1.671875 1.015625q-0.734375 0.296875 -1.515625 0.296875q-1.390625 0 -2.5 -0.9375q-1.453125 -1.21875 -1.453125 -3.5q0 -2.578125 1.6875 -4.421875q1.453125 -1.578125 3.546875 -1.578125q1.90625 0 3.140625 1.40625q1.25 1.390625 1.25 3.953125q0 2.484375 -0.828125 4.921875q-0.984375 2.84375 -2.671875 4.203125q-1.375 1.109375 -3.09375 1.109375q-1.578125 0 -2.59375 -0.984375q-1.0 -0.984375 -1.125 -2.78125zm2.515625 -6.046875q0 1.4375 0.765625 2.296875q0.765625 0.859375 1.8125 0.859375q0.78125 0 1.546875 -0.53125q0.78125 -0.53125 1.328125 -1.59375q0.546875 -1.0625 0.546875 -2.171875q0 -0.875 -0.359375 -1.625q-0.359375 -0.75 -1.0 -1.125q-0.625 -0.375 -1.265625 -0.375q-0.625 0 -1.234375 0.328125q-0.609375 0.328125 -1.125 0.984375q-0.515625 0.640625 -0.765625 1.484375q-0.25 0.828125 -0.25 1.46875z" fill-rule="nonzero"/><path fill="#000000" fill-opacity="0.0" d="m923.48535 187.36214l93.102356 0l0 45.259842l-93.102356 0z" fill-rule="evenodd"/><path fill="#000000" d="m947.5632 216.84213q0.296875 -1.359375 0.8125 -2.28125q0.515625 -0.921875 1.359375 -1.75q0.859375 -0.828125 3.296875 -2.78125q1.484375 -1.171875 2.015625 -1.734375q0.78125 -0.8125 1.140625 -1.59375q0.234375 -0.53125 0.234375 -1.15625q0 -1.046875 -0.75 -1.78125q-0.734375 -0.734375 -1.8125 -0.734375q-1.078125 0 -1.890625 0.75q-0.796875 0.734375 -1.140625 2.375l-1.84375 -0.265625q0.28125 -2.03125 1.578125 -3.203125q1.3125 -1.171875 3.265625 -1.171875q1.296875 0 2.34375 0.546875q1.0625 0.53125 1.59375 1.515625q0.53125 0.984375 0.53125 2.015625q0 1.515625 -1.078125 2.921875q-0.671875 0.875 -3.921875 3.453125q-1.390625 1.109375 -2.078125 1.8125q-0.671875 0.703125 -1.015625 1.328125l6.828125 0l-0.359375 1.734375l-9.109375 0zm12.127319 -5.015625q0 -1.9375 0.578125 -3.921875q0.578125 -2.0 1.28125 -3.203125q0.703125 -1.203125 1.46875 -1.875q0.765625 -0.671875 1.5 -0.984375q0.734375 -0.328125 1.625 -0.328125q1.75 0 2.921875 1.3125q1.171875 1.296875 1.171875 3.75q0 2.53125 -0.8125 5.0q-0.953125 2.9375 -2.671875 4.40625q-1.3125 1.125 -2.984375 1.125q-1.71875 0 -2.90625 -1.34375q-1.171875 -1.359375 -1.171875 -3.9375zm1.8125 0.484375q0 1.40625 0.46875 2.203125q0.640625 1.09375 1.890625 1.09375q1.09375 0 1.984375 -1.0q1.296875 -1.390625 1.9375 -4.078125q0.65625 -2.703125 0.65625 -4.40625q0 -1.640625 -0.625 -2.359375q-0.625 -0.734375 -1.65625 -0.734375q-0.75 0 -1.40625 0.390625q-0.65625 0.375 -1.25 1.3125q-0.84375 1.328125 -1.46875 3.953125q-0.53125 2.25 -0.53125 3.625zm13.674194 4.53125l2.40625 -11.53125q-1.5625 1.234375 -4.390625 1.96875l0.359375 -1.703125q1.40625 -0.5625 2.765625 -1.46875q1.375 -0.90625 2.0625 -1.578125q0.421875 -0.421875 0.796875 -1.015625l1.09375 0l-3.203125 15.328125l-1.890625 0zm11.017944 -8.859375q0.78125 -0.65625 1.562439 -0.984375q0.796875 -0.328125 1.5625 -0.328125q1.75 0 2.875 1.1875q1.140625 1.1875 1.140625 3.203125q0 2.59375 -1.6875 4.453125q-1.453125 1.59375 -3.546875 1.59375q-1.890564 0 -3.156189 -1.390625q-1.265625 -1.390625 -1.265625 -3.96875q0 -2.296875 0.8125 -4.765625q0.625 -1.875 1.546875 -3.09375q0.921875 -1.234375 1.953064 -1.796875q1.046875 -0.578125 2.34375 -0.578125q1.5625 0 2.546875 0.984375q0.984375 0.96875 1.125 2.78125l-1.75 0.15625q-0.140625 -1.234375 -0.703125 -1.78125q-0.546875 -0.5625 -1.359375 -0.5625q-0.84375 0 -1.703125 0.65625q-0.84375 0.65625 -1.468689 1.953125q-0.609375 1.28125 -0.828125 2.28125zm-0.65625 4.5625q0 1.296875 0.796875 2.1875q0.796875 0.875 1.812439 0.875q0.703125 0 1.5 -0.53125q0.796875 -0.546875 1.34375 -1.640625q0.546875 -1.09375 0.546875 -2.171875q0 -1.40625 -0.765625 -2.234375q-0.765625 -0.84375 -1.84375 -0.84375q-1.25 0 -2.328064 1.234375q-1.0625 1.21875 -1.0625 3.125z" fill-rule="nonzero"/><path fill="#000000" fill-opacity="0.0" d="m923.48535 596.35205l93.102356 0l0 45.259888l-93.102356 0z" fill-rule="evenodd"/><path fill="#000000" d="m947.5632 625.8321q0.296875 -1.359375 0.8125 -2.28125q0.515625 -0.921875 1.359375 -1.75q0.859375 -0.828125 3.296875 -2.78125q1.484375 -1.171875 2.015625 -1.734375q0.78125 -0.8125 1.140625 -1.59375q0.234375 -0.53125 0.234375 -1.15625q0 -1.046875 -0.75 -1.78125q-0.734375 -0.734375 -1.8125 -0.734375q-1.078125 0 -1.890625 0.75q-0.796875 0.734375 -1.140625 2.375l-1.84375 -0.265625q0.28125 -2.03125 1.578125 -3.203125q1.3125 -1.171875 3.265625 -1.171875q1.296875 0 2.34375 0.546875q1.0625 0.53125 1.59375 1.515625q0.53125 0.984375 0.53125 2.015625q0 1.515625 -1.078125 2.921875q-0.671875 0.875 -3.921875 3.453125q-1.390625 1.109375 -2.078125 1.8125q-0.671875 0.703125 -1.015625 1.328125l6.828125 0l-0.359375 1.734375l-9.109375 0zm12.127319 -5.015625q0 -1.9375 0.578125 -3.921875q0.578125 -2.0 1.28125 -3.203125q0.703125 -1.203125 1.46875 -1.875q0.765625 -0.671875 1.5 -0.984375q0.734375 -0.328125 1.625 -0.328125q1.75 0 2.921875 1.3125q1.171875 1.296875 1.171875 3.75q0 2.53125 -0.8125 5.0q-0.953125 2.9375 -2.671875 4.40625q-1.3125 1.125 -2.984375 1.125q-1.71875 0 -2.90625 -1.34375q-1.171875 -1.359375 -1.171875 -3.9375zm1.8125 0.484375q0 1.40625 0.46875 2.203125q0.640625 1.09375 1.890625 1.09375q1.09375 0 1.984375 -1.0q1.296875 -1.390625 1.9375 -4.078125q0.65625 -2.703125 0.65625 -4.40625q0 -1.640625 -0.625 -2.359375q-0.625 -0.734375 -1.65625 -0.734375q-0.75 0 -1.40625 0.390625q-0.65625 0.375 -1.25 1.3125q-0.84375 1.328125 -1.46875 3.953125q-0.53125 2.25 -0.53125 3.625zm13.674194 4.53125l2.40625 -11.53125q-1.5625 1.234375 -4.390625 1.96875l0.359375 -1.703125q1.40625 -0.5625 2.765625 -1.46875q1.375 -0.90625 2.0625 -1.578125q0.421875 -0.421875 0.796875 -1.015625l1.09375 0l-3.203125 15.328125l-1.890625 0zm9.814819 0q0.25 -1.546875 1.0625 -3.703125q0.96875 -2.625 2.531189 -5.1875q1.578125 -2.578125 3.515625 -4.4375l-7.624939 0l0.375 -1.734375l9.734314 0l-0.34375 1.734375q-2.484375 2.171875 -4.328125 5.609375q-2.15625 3.96875 -2.953064 7.71875l-1.96875 0z" fill-rule="nonzero"/><path fill="#000000" fill-opacity="0.0" d="m468.49112 299.87006l-261.25983 0" fill-rule="evenodd"/><path stroke="#000000" stroke-width="2.0" stroke-linejoin="round" stroke-linecap="butt" d="m468.49115 299.87006l-249.25987 0" fill-rule="evenodd"/><path fill="#000000" stroke="#000000" stroke-width="2.0" stroke-linecap="butt" d="m219.23128 296.5666l-9.076187 3.3034668l9.076187 3.3034668z" fill-rule="evenodd"/><path fill="#000000" fill-opacity="0.0" d="m885.2142 137.42052l-237.82672 119.52757" fill-rule="evenodd"/><path stroke="#000000" stroke-width="2.0" stroke-linejoin="round" stroke-linecap="butt" d="m885.2142 137.42052l-227.10474 114.13887" fill-rule="evenodd"/><path fill="#000000" stroke="#000000" stroke-width="2.0" stroke-linecap="butt" d="m656.626 248.60773l-6.6260986 7.0273895l9.593018 -1.1240845z" fill-rule="evenodd"/><path fill="#000000" fill-opacity="0.0" d="m883.9139 461.6864l-236.50397 -116.97638" fill-rule="evenodd"/><path stroke="#000000" stroke-width="2.0" stroke-linejoin="round" stroke-linecap="butt" d="m883.9139 461.6864l-225.74774 -111.65631" fill-rule="evenodd"/><path fill="#000000" stroke="#000000" stroke-width="2.0" stroke-linecap="butt" d="m659.6307 347.06906l-9.600037 -1.0628052l6.6708984 6.9849243z" fill-rule="evenodd"/></g></svg>