<svg version="1.1" viewBox="0.0 0.0 4293.543307086614 1369.7007874015749" fill="none" stroke="none" stroke-linecap="square" stroke-miterlimit="10" xmlns:xlink="http://www.w3.org/1999/xlink" xmlns="http://www.w3.org/2000/svg"><clipPath id="p.0"><path d="m0 0l4293.5435 0l0 1369.7008l-4293.5435 0l0 -1369.7008z" clip-rule="nonzero"/></clipPath><g clip-path="url(#p.0)"><path fill="#000000" fill-opacity="0.0" d="m0 0l4293.5435 0l0 1369.7008l-4293.5435 0z" fill-rule="evenodd"/><path shape-rendering="crispEdges" fill="#cfe2f3" d="m331.43323 378.79813l160.79788 0l0 159.97903l-160.79788 0l0 -159.97903z" fill-rule="nonzero"/><path shape-rendering="crispEdges" fill="#cfe2f3" d="m492.2311 378.79813l160.79788 0l0 159.97903l-160.79788 0l0 -159.97903z" fill-rule="nonzero"/><path shape-rendering="crispEdges" fill="#cfe2f3" d="m653.029 378.79813l160.79791 0l0 159.97903l-160.79791 0l0 -159.97903z" fill-rule="nonzero"/><path shape-rendering="crispEdges" fill="#cfe2f3" d="m331.43323 538.77716l160.79788 0l0 166.3753l-160.79788 0l0 -166.3753z" fill-rule="nonzero"/><path shape-rendering="crispEdges" fill="#cfe2f3" d="m492.2311 538.77716l160.79788 0l0 166.3753l-160.79788 0l0 -166.3753z" fill-rule="nonzero"/><path shape-rendering="crispEdges" fill="#cfe2f3" d="m653.029 538.77716l160.79791 0l0 166.3753l-160.79791 0l0 -166.3753z" fill-rule="nonzero"/><path shape-rendering="crispEdges" fill="#cfe2f3" d="m331.43323 705.15247l160.79788 0l0 166.3753l-160.79788 0l0 -166.3753z" fill-rule="nonzero"/><path shape-rendering="crispEdges" fill="#cfe2f3" d="m492.2311 705.15247l160.79788 0l0 166.3753l-160.79788 0l0 -166.3753z" fill-rule="nonzero"/><path shape-rendering="crispEdges" fill="#cfe2f3" d="m653.029 705.15247l160.79791 0l0 166.3753l-160.79791 0l0 -166.3753z" fill-rule="nonzero"/><path shape-rendering="crispEdges" fill="#cfe2f3" d="m331.43323 871.5278l160.79788 0l0 159.97906l-160.79788 0l0 -159.97906z" fill-rule="nonzero"/><path shape-rendering="crispEdges" fill="#cfe2f3" d="m492.2311 871.5278l160.79788 0l0 159.97906l-160.79788 0l0 -159.97906z" fill-rule="nonzero"/><path shape-rendering="crispEdges" fill="#cfe2f3" d="m653.029 871.5278l160.79791 0l0 159.97906l-160.79791 0l0 -159.97906z" fill-rule="nonzero"/><path stroke="#9e9e9e" stroke-width="1.0" stroke-linecap="butt" d="m331.43323 378.29944l0 653.70605" fill-rule="nonzero"/><path stroke="#9e9e9e" stroke-width="1.0" stroke-linecap="butt" d="m492.2311 378.29944l0 653.70605" fill-rule="nonzero"/><path stroke="#9e9e9e" stroke-width="1.0" stroke-linecap="butt" d="m653.029 378.29944l0 653.70605" fill-rule="nonzero"/><path stroke="#9e9e9e" stroke-width="1.0" stroke-linecap="butt" d="m813.8269 378.29944l0 653.70605" fill-rule="nonzero"/><path stroke="#9e9e9e" stroke-width="1.0" stroke-linecap="butt" d="m330.93454 378.79813l483.39108 0" fill-rule="nonzero"/><path stroke="#9e9e9e" stroke-width="1.0" stroke-linecap="butt" d="m330.93454 538.77716l483.39108 0" fill-rule="nonzero"/><path stroke="#9e9e9e" stroke-width="1.0" stroke-linecap="butt" d="m330.93454 705.15247l483.39108 0" fill-rule="nonzero"/><path stroke="#9e9e9e" stroke-width="1.0" stroke-linecap="butt" d="m330.93454 871.5278l483.39108 0" fill-rule="nonzero"/><path stroke="#9e9e9e" stroke-width="1.0" stroke-linecap="butt" d="m330.93454 1031.5068l483.39108 0" fill-rule="nonzero"/><path fill="#cfe2f3" d="m1764.5813 377.7164l559.3701 0l0 646.1732l-559.3701 0z" fill-rule="evenodd"/><path fill="#a5b4c2" d="m2323.9514 377.7164l186.45679 -186.4567l0 646.1732l-186.45679 186.45673z" fill-rule="evenodd"/><path fill="#d8e7f5" d="m1764.5813 377.7164l186.45667 -186.4567l559.37024 0l-186.45679 186.4567z" fill-rule="evenodd"/><path fill="#000000" fill-opacity="0.0" d="m1764.5813 377.7164l186.45667 -186.4567l559.37024 0l0 646.1732l-186.45679 186.45673l-559.3701 0zm0 0l559.3701 0l186.45679 -186.4567m-186.45679 186.4567l0 646.1732" fill-rule="evenodd"/><path stroke="#000000" stroke-width="1.0" stroke-linejoin="round" stroke-linecap="butt" d="m1764.5813 377.7164l186.45667 -186.4567l559.37024 0l0 646.1732l-186.45679 186.45673l-559.3701 0zm0 0l559.3701 0l186.45679 -186.4567m-186.45679 186.4567l0 646.1732" fill-rule="evenodd"/><path fill="#000000" fill-opacity="0.0" d="m412.2099 70.15305l438.2362 0l0 258.55118l-438.2362 0z" fill-rule="evenodd"/><path fill="#000000" d="m557.2319 179.83304l11.15625 -53.437492l7.140625 0l-5.34375 25.734367l29.015625 -25.734367l10.0625 0l-24.828125 21.765617l18.1875 31.671875l-7.984375 0l-15.421875 -27.078125l-11.1875 9.71875l-3.640625 17.359375l-7.15625 0z" fill-rule="nonzero"/><path fill="#000000" d="m480.78802 248.37053l1.28125 -6.0625l23.40625 0l-4.5625 21.76564q-4.40625 2.765625 -10.0625 4.515625q-5.640625 1.75 -11.109375 1.75q-11.671875 0 -17.421875 -7.03125q-4.859375 -5.9375 -4.859375 -15.26564q0 -9.625 4.25 -17.515625q4.25 -7.90625 10.71875 -11.671875q6.46875 -3.78125 14.375 -3.78125q5.6875 0 10.203125 2.0625q4.53125 2.0625 6.9375 5.515625q2.40625 3.4375 3.453125 8.984375l-6.984375 0.765625q-1.140625 -5.515625 -4.703125 -8.4375q-3.546875 -2.9375 -9.125 -2.9375q-5.796875 0 -10.828125 3.15625q-5.03125 3.140625 -8.03125 9.515625q-3.0 6.359375 -3.0 14.453125q0 8.04689 3.96875 12.17189q3.96875 4.109375 10.96875 4.109375q6.96875 0 14.984375 -4.59375l2.40625 -11.468765l-16.265625 0zm56.070007 16.250015q-3.421875 2.953125 -6.59375 4.328125q-3.171875 1.359375 -6.78125 1.359375q-5.359375 0 -8.640625 -3.15625q-3.28125 -3.15625 -3.28125 -8.078125q0 -3.2343903 1.46875 -5.7343903q1.484375 -2.5 3.921875 -4.0q2.453125 -1.515625 5.984375 -2.171875q2.21875 -0.4375 8.4375 -0.6875q6.21875 -0.265625 8.90625 -1.328125q0.765625 -2.6875 0.765625 -4.484375q0 -2.296875 -1.671875 -3.609375q-2.296875 -1.8125 -6.703125 -1.8125q-4.15625 0 -6.796875 1.84375q-2.640625 1.828125 -3.84375 5.21875l-6.671875 -0.578125q2.03125 -5.765625 6.453125 -8.828125q4.4375 -3.0625 11.1875 -3.0625q7.171875 0 11.375 3.4375q3.203125 2.546875 3.203125 6.625q0 3.109375 -0.90625 7.1875l-2.15625 9.625015q-1.015625 4.59375 -1.015625 7.46875q0 1.828125 0.796875 5.25l-6.671875 0q-0.546875 -1.890625 -0.765625 -4.8125zm2.4375 -14.79689q-1.375 0.546875 -2.96875 0.84375q-1.578125 0.28125 -5.296875 0.609375q-5.765625 0.515625 -8.140625 1.296875q-2.359375 0.78125 -3.5625 2.5q-1.203125 1.7031403 -1.203125 3.7812653q0 2.78125 1.90625 4.5625q1.921875 1.78125 5.453125 1.78125q3.28125 0 6.296875 -1.71875q3.03125 -1.734375 4.78125 -4.828125q1.75 -3.1093903 2.734375 -8.82814zm12.942139 19.60939l8.09375 -38.718765l6.609375 0l-1.359375 6.390625q3.6875 -4.125 6.578125 -5.6875q2.90625 -1.578125 6.296875 -1.578125q3.609375 0 6.03125 1.921875q2.421875 1.90625 3.1875 5.34375q2.953125 -3.65625 6.21875 -5.453125q3.265625 -1.8125 6.875 -1.8125q4.84375 0 7.265625 2.296875q2.421875 2.296875 2.421875 6.453125q0 1.796875 -0.84375 5.90625l-5.203125 24.937515l-6.59375 0l5.3125 -25.593765q0.703125 -3.125 0.703125 -4.484375q0 -1.890625 -1.203125 -2.984375q-1.203125 -1.09375 -3.390625 -1.09375q-2.953125 0 -6.015625 1.796875q-3.0625 1.78125 -4.765625 4.6875q-1.6875 2.890625 -2.96875 8.90625l-3.9375 18.76564l-6.59375 0l5.46875 -26.14064q0.578125 -2.65625 0.578125 -3.78125q0 -1.90625 -1.1875 -3.0625q-1.1875 -1.171875 -3.078125 -1.171875q-2.8125 0 -5.890625 1.796875q-3.078125 1.78125 -5.015625 4.96875q-1.921875 3.1875 -3.15625 9.09375l-3.828125 18.29689l-6.609375 0zm90.65796 -13.15625l6.421875 0.65625q-1.390625 4.765625 -6.375 9.078125q-4.96875 4.296875 -11.859375 4.296875q-4.296875 0 -7.890625 -1.984375q-3.578125 -1.984375 -5.46875 -5.78125q-1.875 -3.796875 -1.875 -8.64064q0 -6.34375 2.9375 -12.296875q2.9375 -5.96875 7.59375 -8.859375q4.671875 -2.90625 10.109375 -2.90625q6.921875 0 11.0625 4.3125q4.140625 4.296875 4.140625 11.734375q0 2.84375 -0.515625 5.828125l-28.5 0q-0.15625 1.125 -0.15625 2.046875q0 5.4218903 2.5 8.29689q2.5 2.859375 6.109375 2.859375q3.390625 0 6.671875 -2.21875q3.28125 -2.234375 5.09375 -6.421875zm-19.171875 -9.593765l21.734375 0q0.03125 -1.015625 0.03125 -1.453125q0 -4.953125 -2.484375 -7.59375q-2.46875 -2.65625 -6.375 -2.65625q-4.234375 0 -7.71875 2.921875q-3.46875 2.921875 -5.1875 8.78125zm32.87964 9.51564l6.609375 -0.40626526q0 2.8437653 0.875 4.8593903q0.875 2.0 3.21875 3.28125q2.359375 1.265625 5.484375 1.265625q4.375 0 6.5625 -1.75q2.1875 -1.75 2.1875 -4.109375q0 -1.71875 -1.3125 -3.25q-1.34375 -1.5312653 -6.578125 -3.7656403q-5.234375 -2.25 -6.6875 -3.15625q-2.4375 -1.5 -3.6875 -3.515625q-1.234375 -2.03125 -1.234375 -4.65625q0 -4.59375 3.640625 -7.875q3.65625 -3.28125 10.203125 -3.28125q7.296875 0 11.109375 3.375q3.8125 3.375 3.953125 8.875l-6.453125 0.4375q-0.140625 -3.5 -2.484375 -5.53125q-2.328125 -2.046875 -6.59375 -2.046875q-3.421875 0 -5.328125 1.578125q-1.890625 1.5625 -1.890625 3.375q0 1.828125 1.640625 3.21875q1.09375 0.9375 5.65625 2.90625q7.578125 3.28125 9.546875 5.171875q3.140625 3.03125 3.140625 7.3750153q0 2.875 -1.78125 5.65625q-1.765625 2.765625 -5.390625 4.421875q-3.625 1.65625 -8.546875 1.65625q-6.703125 0 -11.40625 -3.3125q-4.703125 -3.328125 -4.453125 -10.796875z" fill-rule="nonzero"/><path fill="#000000" fill-opacity="0.0" d="m-1.4805034 574.6609l438.2362 0l0 258.55115l-438.2362 0z" fill-rule="evenodd"/><path fill="#000000" d="m142.71336 684.3409l8.09375 -38.71875l5.96875 0l-1.421875 6.75q3.90625 -3.96875 7.296875 -5.796875q3.390625 -1.828125 6.921875 -1.828125q4.703125 0 7.375 2.5625q2.6875 2.546875 2.6875 6.8125q0 2.15625 -0.953125 6.78125l-4.921875 23.4375l-6.59375 0l5.140625 -24.53125q0.765625 -3.578125 0.765625 -5.28125q0 -1.9375 -1.328125 -3.140625q-1.328125 -1.203125 -3.84375 -1.203125q-5.078125 0 -9.03125 3.65625q-3.953125 3.640625 -5.8125 12.484375l-3.75 18.015625l-6.59375 0z" fill-rule="nonzero"/><path fill="#000000" d="m40.160122 773.94086l11.203125 -53.4375l6.921875 0l8.999996 20.046875q4.125 9.1875 6.53125 15.453125q1.375 3.640625 3.203125 9.84375q0.984375 -6.75 2.484375 -13.921875l6.5625 -31.421875l6.953125 0l-11.15625 53.4375l-7.0625 0l-13.281246 -30.875q-3.53125 -8.171875 -5.5 -14.40625q-0.546875 5.21875 -2.109375 12.796875l-6.78125 32.484375l-6.96875 0zm53.91435 -14.6875q0 -11.34375 6.671875 -18.78125q5.515625 -6.125 14.4375 -6.125q7.0 0 11.28125 4.375q4.2812576 4.375 4.2812576 11.8125q0 6.671875 -2.703125 12.421875q-2.6875076 5.734375 -7.6718826 8.796875q-4.96875 3.0625 -10.46875 3.0625q-4.515625 0 -8.21875 -1.921875q-3.703125 -1.9375 -5.65625 -5.46875q-1.953125 -3.546875 -1.953125 -8.171875zm6.609375 -0.65625q0 5.46875 2.625 8.296875q2.625 2.8125 6.65625 2.8125q2.125 0 4.203125 -0.84375q2.078125 -0.859375 3.859375 -2.609375q1.78125 -1.75 3.03125 -3.984375q1.265625 -2.25 2.03125 -4.84375q1.140625 -3.609375 1.140625 -6.921875q0 -5.25 -2.65625 -8.140625q-2.640625 -2.90625 -6.640625 -2.90625q-3.109375 0 -5.65625 1.484375q-2.546875 1.46875 -4.609375 4.3125q-2.0625 2.84375 -3.03125 6.625q-0.953125 3.765625 -0.953125 6.71875zm59.84838 9.734375q-5.65625 6.484375 -11.8125 6.484375q-5.5 0 -9.171875 -4.0625q-3.65625 -4.0625 -3.65625 -11.796875q0 -7.0625 2.890625 -12.90625q2.90625 -5.859375 7.265625 -8.78125q4.359375 -2.921875 8.71875 -2.921875q7.21875 0 10.90625 6.96875l4.375 -20.8125l6.5625 0l-11.15625 53.4375l-6.09375 0l1.171875 -5.609375zm-18.078125 -10.609375q0 4.046875 0.796875 6.375q0.8125 2.328125 2.734375 3.890625q1.9375 1.546875 4.640625 1.546875q4.46875 0 8.125 -4.671875q4.875 -6.203125 4.875 -15.3125q0 -4.59375 -2.40625 -7.171875q-2.40625 -2.59375 -6.046875 -2.59375q-2.375 0 -4.328125 1.0625q-1.9375 1.046875 -3.859375 3.59375q-1.90625 2.53125 -3.21875 6.4375q-1.3125 3.890625 -1.3125 6.84375zm61.9265 3.0625l6.421875 0.65625q-1.390625 4.765625 -6.375 9.078125q-4.96875 4.296875 -11.859375 4.296875q-4.296875 0 -7.890625 -1.984375q-3.578125 -1.984375 -5.46875 -5.78125q-1.875 -3.796875 -1.875 -8.640625q0 -6.34375 2.9375 -12.296875q2.9375 -5.96875 7.59375 -8.859375q4.671875 -2.90625 10.109375 -2.90625q6.921875 0 11.0625 4.3125q4.140625 4.296875 4.140625 11.734375q0 2.84375 -0.515625 5.828125l-28.5 0q-0.15625 1.125 -0.15625 2.046875q0 5.421875 2.5 8.296875q2.5 2.859375 6.109375 2.859375q3.390625 0 6.671875 -2.21875q3.28125 -2.234375 5.09375 -6.421875zm-19.171875 -9.59375l21.734375 0q0.03125 -1.015625 0.03125 -1.453125q0 -4.953125 -2.484375 -7.59375q-2.46875 -2.65625 -6.375 -2.65625q-4.234375 0 -7.71875 2.921875q-3.46875 2.921875 -5.1875 8.78125zm32.879623 9.515625l6.609375 -0.40625q0 2.84375 0.875 4.859375q0.875 2.0 3.21875 3.28125q2.359375 1.265625 5.484375 1.265625q4.375 0 6.5625 -1.75q2.1875 -1.75 2.1875 -4.109375q0 -1.71875 -1.3125 -3.25q-1.34375 -1.53125 -6.578125 -3.765625q-5.234375 -2.25 -6.6875 -3.15625q-2.4375 -1.5 -3.6875 -3.515625q-1.234375 -2.03125 -1.234375 -4.65625q0 -4.59375 3.640625 -7.875q3.65625 -3.28125 10.203125 -3.28125q7.296875 0 11.109375 3.375q3.8125 3.375 3.953125 8.875l-6.453125 0.4375q-0.140625 -3.5 -2.484375 -5.53125q-2.328125 -2.046875 -6.59375 -2.046875q-3.421875 0 -5.328125 1.578125q-1.890625 1.5625 -1.890625 3.375q0 1.828125 1.640625 3.21875q1.09375 0.9375 5.65625 2.90625q7.578125 3.28125 9.546875 5.171875q3.140625 3.03125 3.140625 7.375q0 2.875 -1.78125 5.65625q-1.765625 2.765625 -5.390625 4.421875q-3.625 1.65625 -8.546875 1.65625q-6.703125 0 -11.40625 -3.3125q-4.703125 -3.328125 -4.453125 -10.796875z" fill-rule="nonzero"/><path fill="#000000" fill-opacity="0.0" d="m2412.039 478.3382l438.23608 0l0 258.5512l-438.23608 0z" fill-rule="evenodd"/><path fill="#000000" d="m2556.233 588.0182l8.09375 -38.71875l5.96875 0l-1.421875 6.75q3.90625 -3.96875 7.296875 -5.796875q3.390625 -1.828125 6.921875 -1.828125q4.703125 0 7.375 2.5625q2.6875 2.546875 2.6875 6.8125q0 2.15625 -0.953125 6.78125l-4.921875 23.4375l-6.59375 0l5.140625 -24.53125q0.765625 -3.578125 0.765625 -5.28125q0 -1.9375 -1.328125 -3.140625q-1.328125 -1.203125 -3.84375 -1.203125q-5.078125 0 -9.03125 3.65625q-3.953125 3.640625 -5.8125 12.484375l-3.75 18.015625l-6.59375 0z" fill-rule="nonzero"/><path fill="#000000" fill-opacity="0.0" d="m1596.14 171.62987l438.2362 0l0 258.55115l-438.2362 0z" fill-rule="evenodd"/><path fill="#000000" d="m1741.162 281.30984l11.15625 -53.437485l7.140625 0l-5.34375 25.734375l29.015625 -25.734375l10.0625 0l-24.828125 21.765625l18.1875 31.67186l-7.984375 0l-15.421875 -27.07811l-11.1875 9.718735l-3.640625 17.359375l-7.15625 0z" fill-rule="nonzero"/><path fill="#000000" fill-opacity="0.0" d="m2044.1969 11.651936l438.2362 0l0 258.55118l-438.2362 0z" fill-rule="evenodd"/><path fill="#000000" d="m2189.297 121.33193l11.15625 -53.4375l34.734375 0l-1.265625 6.078125l-27.609375 0l-3.53125 17.03125l28.109375 0l-1.28125 6.09375l-28.09375 0l-5.078125 24.234375l-7.140625 0z" fill-rule="nonzero"/><path fill="#fff2cc" d="m1029.2483 635.4663l0 0c0 -18.902771 15.32373 -34.22644 34.22644 -34.22644l413.87793 0c9.077393 0 17.782959 3.606018 24.20166 10.024719c6.418701 6.418701 10.024658 15.124268 10.024658 24.201721l0 136.90149c0 18.90271 -15.323608 34.22644 -34.22632 34.22644l-413.87793 0c-18.90271 0 -34.22644 -15.32373 -34.22644 -34.22644z" fill-rule="evenodd"/><path stroke="#000000" stroke-width="1.0" stroke-linejoin="round" stroke-linecap="butt" d="m1029.2483 635.4663l0 0c0 -18.902771 15.32373 -34.22644 34.22644 -34.22644l413.87793 0c9.077393 0 17.782959 3.606018 24.20166 10.024719c6.418701 6.418701 10.024658 15.124268 10.024658 24.201721l0 136.90149c0 18.90271 -15.323608 34.22644 -34.22632 34.22644l-413.87793 0c-18.90271 0 -34.22644 -15.32373 -34.22644 -34.22644z" fill-rule="evenodd"/><path fill="#000000" d="m1118.2567 734.83704l0 -61.078125l44.15625 0l0 7.203125l-36.078125 0l0 18.703125l33.796875 0l0 7.171875l-33.796875 0l0 20.796875l37.5 0l0 7.203125l-45.578125 0zm55.788208 0l0 -44.25l6.75 0l0 6.296875q4.875 -7.296875 14.078125 -7.296875q4.0 0 7.359375 1.4375q3.359375 1.4375 5.015625 3.78125q1.671875 2.328125 2.34375 5.53125q0.40625 2.078125 0.40625 7.296875l0 27.203125l-7.5 0l0 -26.921875q0 -4.578125 -0.875 -6.84375q-0.875 -2.28125 -3.109375 -3.625q-2.21875 -1.359375 -5.21875 -1.359375q-4.796875 0 -8.28125 3.046875q-3.46875 3.03125 -3.46875 11.53125l0 24.171875l-7.5 0zm76.330444 -16.203125l7.375 0.953125q-1.203125 7.625 -6.1875 11.9375q-4.984375 4.3125 -12.234375 4.3125q-9.078125 0 -14.609375 -5.9375q-5.515625 -5.9375 -5.515625 -17.015625q0 -7.171875 2.375 -12.546875q2.375 -5.375 7.234375 -8.0625q4.859375 -2.6875 10.5625 -2.6875q7.203125 0 11.78125 3.65625q4.59375 3.640625 5.890625 10.34375l-7.296875 1.125q-1.046875 -4.453125 -3.6875 -6.703125q-2.640625 -2.25 -6.390625 -2.25q-5.671875 0 -9.21875 4.0625q-3.53125 4.0625 -3.53125 12.84375q0 8.921875 3.40625 12.96875q3.421875 4.03125 8.921875 4.03125q4.421875 0 7.375 -2.703125q2.953125 -2.703125 3.75 -8.328125zm10.9921875 -5.921875q0 -12.296875 6.84375 -18.203125q5.703125 -4.921875 13.90625 -4.921875q9.125 0 14.90625 5.984375q5.796875 5.96875 5.796875 16.515625q0 8.546875 -2.5625 13.4375q-2.546875 4.890625 -7.453125 7.609375q-4.890625 2.703125 -10.6875 2.703125q-9.28125 0 -15.015625 -5.953125q-5.734375 -5.96875 -5.734375 -17.171875zm7.71875 0q0 8.5 3.703125 12.734375q3.703125 4.21875 9.328125 4.21875q5.59375 0 9.296875 -4.25q3.703125 -4.25 3.703125 -12.953125q0 -8.203125 -3.734375 -12.4375q-3.71875 -4.234375 -9.265625 -4.234375q-5.625 0 -9.328125 4.21875q-3.703125 4.203125 -3.703125 12.703125zm71.236694 22.125l0 -5.578125q-4.203125 6.578125 -12.375 6.578125q-5.28125 0 -9.71875 -2.90625q-4.4375 -2.921875 -6.875 -8.15625q-2.4375 -5.234375 -2.4375 -12.015625q0 -6.625 2.203125 -12.015625q2.203125 -5.40625 6.625 -8.28125q4.421875 -2.875 9.875 -2.875q4.0 0 7.125 1.6875q3.125 1.6875 5.078125 4.390625l0 -21.90625l7.46875 0l0 61.078125l-6.96875 0zm-23.703125 -22.078125q0 8.5 3.578125 12.703125q3.59375 4.203125 8.46875 4.203125q4.90625 0 8.34375 -4.015625q3.4375 -4.015625 3.4375 -12.265625q0 -9.09375 -3.5 -13.34375q-3.5 -4.25 -8.625 -4.25q-5.0 0 -8.359375 4.09375q-3.34375 4.078125 -3.34375 12.875zm72.75232 7.828125l7.734375 0.953125q-1.828125 6.796875 -6.78125 10.546875q-4.953125 3.75 -12.671875 3.75q-9.703125 0 -15.390625 -5.96875q-5.6875 -5.984375 -5.6875 -16.78125q0 -11.171875 5.75 -17.328125q5.75 -6.171875 14.921875 -6.171875q8.875 0 14.484375 6.046875q5.625 6.03125 5.625 17.0q0 0.65625 -0.03125 2.0l-33.0 0q0.421875 7.28125 4.125 11.15625q3.703125 3.875 9.25 3.875q4.125 0 7.03125 -2.15625q2.921875 -2.171875 4.640625 -6.921875zm-24.625 -12.125l24.703125 0q-0.5 -5.578125 -2.828125 -8.375q-3.59375 -4.328125 -9.296875 -4.328125q-5.171875 0 -8.6875 3.453125q-3.515625 3.453125 -3.890625 9.25zm41.705444 26.375l0 -44.25l6.75 0l0 6.703125q2.578125 -4.703125 4.765625 -6.203125q2.1875 -1.5 4.8125 -1.5q3.796875 0 7.703125 2.421875l-2.578125 6.953125q-2.75 -1.625 -5.5 -1.625q-2.453125 0 -4.421875 1.484375q-1.953125 1.46875 -2.78125 4.09375q-1.25 4.0 -1.25 8.75l0 23.171875l-7.5 0z" fill-rule="nonzero"/><path fill="#000000" fill-opacity="0.0" d="m1511.579 703.91705l252.91345 -3.9055176" fill-rule="evenodd"/><path stroke="#000000" stroke-width="1.0" stroke-linejoin="round" stroke-linecap="butt" d="m1511.5791 703.91705l246.91406 -3.8128662" fill-rule="evenodd"/><path fill="#000000" stroke="#000000" stroke-width="1.0" stroke-linecap="butt" d="m1758.5187 701.75574l4.512085 -1.7216187l-4.5631104 -1.5814209z" fill-rule="evenodd"/><path fill="#fff2cc" d="m2698.553 635.4663l0 0c0 -18.902771 15.32373 -34.22644 34.226562 -34.22644l413.87793 0c9.077393 0 17.782959 3.606018 24.20166 10.024719c6.418701 6.418701 10.024658 15.124268 10.024658 24.201721l0 136.90149c0 18.90271 -15.32373 34.22644 -34.22632 34.22644l-413.87793 0c-18.902832 0 -34.226562 -15.32373 -34.226562 -34.22644z" fill-rule="evenodd"/><path stroke="#000000" stroke-width="1.0" stroke-linejoin="round" stroke-linecap="butt" d="m2698.553 635.4663l0 0c0 -18.902771 15.32373 -34.22644 34.226562 -34.22644l413.87793 0c9.077393 0 17.782959 3.606018 24.20166 10.024719c6.418701 6.418701 10.024658 15.124268 10.024658 24.201721l0 136.90149c0 18.90271 -15.32373 34.22644 -34.22632 34.22644l-413.87793 0c-18.902832 0 -34.226562 -15.32373 -34.226562 -34.22644z" fill-rule="evenodd"/><path fill="#000000" d="m2785.0356 734.83704l0 -61.078125l21.046875 0q7.125 0 10.875 0.875q5.25 1.203125 8.953125 4.375q4.828125 4.078125 7.21875 10.4375q2.40625 6.34375 2.40625 14.515625q0 6.953125 -1.625 12.328125q-1.625 5.375 -4.171875 8.90625q-2.53125 3.515625 -5.5625 5.546875q-3.015625 2.015625 -7.28125 3.0625q-4.265625 1.03125 -9.8125 1.03125l-22.046875 0zm8.09375 -7.203125l13.03125 0q6.046875 0 9.484375 -1.125q3.4375 -1.125 5.484375 -3.171875q2.859375 -2.875 4.46875 -7.71875q1.609375 -4.859375 1.609375 -11.78125q0 -9.578125 -3.15625 -14.71875q-3.140625 -5.15625 -7.640625 -6.90625q-3.25 -1.25 -10.453125 -1.25l-12.828125 0l0 46.671875zm82.87109 -7.046875l7.734375 0.953125q-1.828125 6.796875 -6.78125 10.546875q-4.953125 3.75 -12.671875 3.75q-9.703125 0 -15.390625 -5.96875q-5.6875 -5.984375 -5.6875 -16.78125q0 -11.171875 5.75 -17.328125q5.75 -6.171875 14.921875 -6.171875q8.875 0 14.484375 6.046875q5.625 6.03125 5.625 17.0q0 0.65625 -0.03125 2.0l-33.0 0q0.421875 7.28125 4.125 11.15625q3.703125 3.875 9.25 3.875q4.125 0 7.03125 -2.15625q2.921875 -2.171875 4.640625 -6.921875zm-24.625 -12.125l24.703125 0q-0.5 -5.578125 -2.828125 -8.375q-3.59375 -4.328125 -9.296875 -4.328125q-5.171875 0 -8.6875 3.453125q-3.515625 3.453125 -3.890625 9.25zm70.65869 10.171875l7.375 0.953125q-1.203125 7.625 -6.1875 11.9375q-4.984375 4.3125 -12.234375 4.3125q-9.078125 0 -14.609375 -5.9375q-5.515625 -5.9375 -5.515625 -17.015625q0 -7.171875 2.375 -12.546875q2.375 -5.375 7.234375 -8.0625q4.859375 -2.6875 10.5625 -2.6875q7.203125 0 11.78125 3.65625q4.59375 3.640625 5.890625 10.34375l-7.296875 1.125q-1.046875 -4.453125 -3.6875 -6.703125q-2.640625 -2.25 -6.390625 -2.25q-5.671875 0 -9.21875 4.0625q-3.53125 4.0625 -3.53125 12.84375q0 8.921875 3.40625 12.96875q3.421875 4.03125 8.921875 4.03125q4.421875 0 7.375 -2.703125q2.953125 -2.703125 3.75 -8.328125zm10.9921875 -5.921875q0 -12.296875 6.84375 -18.203125q5.703125 -4.921875 13.90625 -4.921875q9.125 0 14.90625 5.984375q5.796875 5.96875 5.796875 16.515625q0 8.546875 -2.5625 13.4375q-2.546875 4.890625 -7.453125 7.609375q-4.890625 2.703125 -10.6875 2.703125q-9.28125 0 -15.015625 -5.953125q-5.734375 -5.96875 -5.734375 -17.171875zm7.71875 0q0 8.5 3.703125 12.734375q3.703125 4.21875 9.328125 4.21875q5.59375 0 9.296875 -4.25q3.703125 -4.25 3.703125 -12.953125q0 -8.203125 -3.734375 -12.4375q-3.71875 -4.234375 -9.265625 -4.234375q-5.625 0 -9.328125 4.21875q-3.703125 4.203125 -3.703125 12.703125zm71.23657 22.125l0 -5.578125q-4.203125 6.578125 -12.375 6.578125q-5.28125 0 -9.71875 -2.90625q-4.4375 -2.921875 -6.875 -8.15625q-2.4375 -5.234375 -2.4375 -12.015625q0 -6.625 2.203125 -12.015625q2.203125 -5.40625 6.625 -8.28125q4.421875 -2.875 9.875 -2.875q4.0 0 7.125 1.6875q3.125 1.6875 5.078125 4.390625l0 -21.90625l7.46875 0l0 61.078125l-6.96875 0zm-23.703125 -22.078125q0 8.5 3.578125 12.703125q3.59375 4.203125 8.46875 4.203125q4.90625 0 8.34375 -4.015625q3.4375 -4.015625 3.4375 -12.265625q0 -9.09375 -3.5 -13.34375q-3.5 -4.25 -8.625 -4.25q-5.0 0 -8.359375 4.09375q-3.34375 4.078125 -3.34375 12.875zm72.75244 7.828125l7.734375 0.953125q-1.828125 6.796875 -6.78125 10.546875q-4.953125 3.75 -12.671875 3.75q-9.703125 0 -15.390625 -5.96875q-5.6875 -5.984375 -5.6875 -16.78125q0 -11.171875 5.75 -17.328125q5.75 -6.171875 14.921875 -6.171875q8.875 0 14.484375 6.046875q5.625 6.03125 5.625 17.0q0 0.65625 -0.03125 2.0l-33.0 0q0.421875 7.28125 4.125 11.15625q3.703125 3.875 9.25 3.875q4.125 0 7.03125 -2.15625q2.921875 -2.171875 4.640625 -6.921875zm-24.625 -12.125l24.703125 0q-0.5 -5.578125 -2.828125 -8.375q-3.59375 -4.328125 -9.296875 -4.328125q-5.171875 0 -8.6875 3.453125q-3.515625 3.453125 -3.890625 9.25zm41.705322 26.375l0 -44.25l6.75 0l0 6.703125q2.578125 -4.703125 4.765625 -6.203125q2.1875 -1.5 4.8125 -1.5q3.796875 0 7.703125 2.421875l-2.578125 6.953125q-2.75 -1.625 -5.5 -1.625q-2.453125 0 -4.421875 1.484375q-1.953125 1.46875 -2.78125 4.09375q-1.25 4.0 -1.25 8.75l0 23.171875l-7.5 0z" fill-rule="nonzero"/><path fill="#000000" fill-opacity="0.0" d="m510.5846 1118.5858l132.53546 0l0 206.83472l-132.53546 0z" fill-rule="evenodd"/><path fill="#000000" d="m548.5846 1258.9858l26.09375 -39.84375l-23.640625 -36.5l18.015625 0l15.3125 24.53125l15.0 -24.53125l17.859375 0l-23.75 37.078125l26.09375 39.265625l-18.59375 0l-16.921875 -26.40625l-16.984375 26.40625l-18.484375 0z" fill-rule="nonzero"/><path fill="#000000" fill-opacity="0.0" d="m2103.207 1118.5858l132.5354 0l0 206.83472l-132.5354 0z" fill-rule="evenodd"/><path fill="#000000" d="m2142.3477 1258.9858l0 -13.90625l40.109375 -49.53125l-35.578125 0l0 -12.90625l55.890625 0l0 11.96875l-41.828125 51.515625l43.4375 0l0 12.859375l-62.03125 0z" fill-rule="nonzero"/><path shape-rendering="crispEdges" fill="#cfe2f3" d="m3430.5044 375.6857l160.79785 0l0 166.37534l-160.79785 0l0 -166.37534z" fill-rule="nonzero"/><path shape-rendering="crispEdges" fill="#cfe2f3" d="m3591.3022 375.6857l160.7981 0l0 166.37534l-160.7981 0l0 -166.37534z" fill-rule="nonzero"/><path shape-rendering="crispEdges" fill="#cfe2f3" d="m3752.1003 375.6857l160.79785 0l0 166.37534l-160.79785 0l0 -166.37534z" fill-rule="nonzero"/><path shape-rendering="crispEdges" fill="#cfe2f3" d="m3912.8982 375.6857l160.79785 0l0 166.37534l-160.79785 0l0 -166.37534z" fill-rule="nonzero"/><path shape-rendering="crispEdges" fill="#cfe2f3" d="m3430.5044 542.06104l160.79785 0l0 159.82153l-160.79785 0l0 -159.82153z" fill-rule="nonzero"/><path shape-rendering="crispEdges" fill="#cfe2f3" d="m3591.3022 542.06104l160.7981 0l0 159.82153l-160.7981 0l0 -159.82153z" fill-rule="nonzero"/><path shape-rendering="crispEdges" fill="#cfe2f3" d="m3752.1003 542.06104l160.79785 0l0 159.82153l-160.79785 0l0 -159.82153z" fill-rule="nonzero"/><path shape-rendering="crispEdges" fill="#cfe2f3" d="m3912.8982 542.06104l160.79785 0l0 159.82153l-160.79785 0l0 -159.82153z" fill-rule="nonzero"/><path shape-rendering="crispEdges" fill="#cfe2f3" d="m3430.5044 701.88257l160.79785 0l0 166.3753l-160.79785 0l0 -166.3753z" fill-rule="nonzero"/><path shape-rendering="crispEdges" fill="#cfe2f3" d="m3591.3022 701.88257l160.7981 0l0 166.3753l-160.7981 0l0 -166.3753z" fill-rule="nonzero"/><path shape-rendering="crispEdges" fill="#cfe2f3" d="m3752.1003 701.88257l160.79785 0l0 166.3753l-160.79785 0l0 -166.3753z" fill-rule="nonzero"/><path shape-rendering="crispEdges" fill="#cfe2f3" d="m3912.8982 701.88257l160.79785 0l0 166.3753l-160.79785 0l0 -166.3753z" fill-rule="nonzero"/><path shape-rendering="crispEdges" fill="#cfe2f3" d="m3430.5044 868.2579l160.79785 0l0 166.3753l-160.79785 0l0 -166.3753z" fill-rule="nonzero"/><path shape-rendering="crispEdges" fill="#cfe2f3" d="m3591.3022 868.2579l160.7981 0l0 166.3753l-160.7981 0l0 -166.3753z" fill-rule="nonzero"/><path shape-rendering="crispEdges" fill="#cfe2f3" d="m3752.1003 868.2579l160.79785 0l0 166.3753l-160.79785 0l0 -166.3753z" fill-rule="nonzero"/><path shape-rendering="crispEdges" fill="#cfe2f3" d="m3912.8982 868.2579l160.79785 0l0 166.3753l-160.79785 0l0 -166.3753z" fill-rule="nonzero"/><path stroke="#9e9e9e" stroke-width="1.0" stroke-linecap="butt" d="m3430.5044 375.187l0 659.9448" fill-rule="nonzero"/><path stroke="#9e9e9e" stroke-width="1.0" stroke-linecap="butt" d="m3591.3022 375.187l0 659.9448" fill-rule="nonzero"/><path stroke="#9e9e9e" stroke-width="1.0" stroke-linecap="butt" d="m3752.1003 375.187l0 659.9448" fill-rule="nonzero"/><path stroke="#9e9e9e" stroke-width="1.0" stroke-linecap="butt" d="m3912.8982 375.187l0 659.9448" fill-rule="nonzero"/><path stroke="#9e9e9e" stroke-width="1.0" stroke-linecap="butt" d="m4073.696 375.187l0 659.9448" fill-rule="nonzero"/><path stroke="#9e9e9e" stroke-width="1.0" stroke-linecap="butt" d="m3430.0059 375.6857l644.18896 0" fill-rule="nonzero"/><path stroke="#9e9e9e" stroke-width="1.0" stroke-linecap="butt" d="m3430.0059 542.06104l644.18896 0" fill-rule="nonzero"/><path stroke="#9e9e9e" stroke-width="1.0" stroke-linecap="butt" d="m3430.0059 701.88257l644.18896 0" fill-rule="nonzero"/><path stroke="#9e9e9e" stroke-width="1.0" stroke-linecap="butt" d="m3430.0059 868.2579l644.18896 0" fill-rule="nonzero"/><path stroke="#9e9e9e" stroke-width="1.0" stroke-linecap="butt" d="m3430.0059 1034.6332l644.18896 0" fill-rule="nonzero"/><path fill="#000000" fill-opacity="0.0" d="m3685.823 171.62987l132.5354 0l0 168.06297l-132.5354 0z" fill-rule="evenodd"/><path fill="#000000" d="m3726.3074 281.30984l8.09375 -38.718735l5.96875 0l-1.421875 6.75q3.90625 -3.96875 7.296875 -5.796875q3.390625 -1.828125 6.921875 -1.828125q4.703125 0 7.375 2.5625q2.6875 2.546875 2.6875 6.8125q0 2.15625 -0.953125 6.7812347l-4.921875 23.4375l-6.59375 0l5.140625 -24.53125q0.765625 -3.5781097 0.765625 -5.2812347q0 -1.9375 -1.328125 -3.140625q-1.328125 -1.203125 -3.84375 -1.203125q-5.078125 0 -9.03125 3.65625q-3.953125 3.640625 -5.8125 12.48436l-3.75 18.015625l-6.59375 0z" fill-rule="nonzero"/><path fill="#000000" fill-opacity="0.0" d="m4020.9626 629.3095l438.23608 0l0 258.55115l-438.23608 0z" fill-rule="evenodd"/><path fill="#000000" d="m4165.1567 738.9895l8.09375 -38.71875l5.96875 0l-1.421875 6.75q3.90625 -3.96875 7.296875 -5.796875q3.390625 -1.828125 6.921875 -1.828125q4.703125 0 7.375 2.5625q2.6875 2.546875 2.6875 6.8125q0 2.15625 -0.953125 6.78125l-4.921875 23.4375l-6.59375 0l5.140625 -24.53125q0.765625 -3.578125 0.765625 -5.28125q0 -1.9375 -1.328125 -3.140625q-1.328125 -1.203125 -3.84375 -1.203125q-5.078125 0 -9.03125 3.65625q-3.953125 3.640625 -5.8125 12.484375l-3.75 18.015625l-6.59375 0z" fill-rule="nonzero"/><path fill="#000000" fill-opacity="0.0" d="m3695.8296 1118.5858l132.5354 0l0 206.83472l-132.5354 0z" fill-rule="evenodd"/><path fill="#000000" d="m3810.439 1258.9858l-16.765625 0l-6.671875 -17.34375l-30.515625 0l-6.296875 17.34375l-16.359375 0l29.734375 -76.34375l16.296875 0l30.578125 76.34375zm-28.390625 -30.203125l-10.515625 -28.328125l-10.3125 28.328125l20.828125 0zm-28.109375 -50.515625l10.9375 -15.375l13.546875 0l10.765625 15.375l-11.765625 0l-6.03125 -7.765625l-5.625 7.765625l-11.828125 0z" fill-rule="nonzero"/><path fill="#000000" fill-opacity="0.0" d="m2462.9587 241.73042l-0.7558594 641.5748" fill-rule="evenodd"/><path stroke="#666666" stroke-width="1.0" stroke-linejoin="round" stroke-linecap="butt" d="m2462.9587 241.73042l-0.7558594 641.5748" fill-rule="evenodd"/><path fill="#000000" fill-opacity="0.0" d="m2391.6636 318.10834l0 641.5748" fill-rule="evenodd"/><path stroke="#666666" stroke-width="1.0" stroke-linejoin="round" stroke-linecap="butt" d="m2391.6636 318.10834l0 641.5748" fill-rule="evenodd"/><path fill="#000000" fill-opacity="0.0" d="m2322.143 547.1266l190.48804 -190.48816" fill-rule="evenodd"/><path stroke="#666666" stroke-width="1.0" stroke-linejoin="round" stroke-linecap="butt" d="m2322.143 547.1266l190.48804 -190.48816" fill-rule="evenodd"/><path fill="#000000" fill-opacity="0.0" d="m2323.9514 700.803l186.45679 -186.45667" fill-rule="evenodd"/><path stroke="#666666" stroke-width="1.0" stroke-linejoin="round" stroke-linecap="butt" d="m2323.9514 700.803l186.45679 -186.45667" fill-rule="evenodd"/><path fill="#000000" fill-opacity="0.0" d="m2325.4504 862.93604l184.18896 -173.73224" fill-rule="evenodd"/><path stroke="#666666" stroke-width="1.0" stroke-linejoin="round" stroke-linecap="butt" d="m2325.4504 862.93604l184.18896 -173.73224" fill-rule="evenodd"/><path fill="#000000" fill-opacity="0.0" d="m1029.2483 703.91705l-212.78735 0.3779297" fill-rule="evenodd"/><path stroke="#000000" stroke-width="1.0" stroke-linejoin="round" stroke-linecap="butt" d="m1029.2483 703.91705l-212.78735 0.3779297" fill-rule="evenodd"/><path fill="#000000" fill-opacity="0.0" d="m2698.553 703.91705l-185.95264 0.3779297" fill-rule="evenodd"/><path stroke="#000000" stroke-width="1.0" stroke-linejoin="round" stroke-linecap="butt" d="m2698.553 703.91705l-185.95264 0.3779297" fill-rule="evenodd"/><path fill="#000000" fill-opacity="0.0" d="m3180.8838 703.91705l253.92139 -2.645691" fill-rule="evenodd"/><path stroke="#000000" stroke-width="1.0" stroke-linejoin="round" stroke-linecap="butt" d="m3180.8838 703.91705l247.92163 -2.58313" fill-rule="evenodd"/><path fill="#000000" stroke="#000000" stroke-width="1.0" stroke-linecap="butt" d="m3428.8228 702.98553l4.520508 -1.6989136l-4.5549316 -1.6043701z" fill-rule="evenodd"/></g></svg>